<svg width="266" height="175" viewBox="0 0 266 175" fill="none" xmlns="http://www.w3.org/2000/svg">
<g filter="url(#filter0_d_933_3)">
<path d="M7.27291 57.4319V25.7937H4V16.7542H7.27291V7.6368L15.5331 0H30.8847V8.494H24.0271L21.8452 10.598V16.7542H29.0144V25.7937H21.8452V57.4319H7.27291Z" fill="white"/>
<path d="M35.9645 12.2345V1.32475H50.5368V12.2345H35.9645ZM35.9645 57.4319V16.6763H50.5368V57.4319H35.9645Z" fill="white"/>
<path d="M59.1385 57.4319V47.769L78.3084 26.6509H60.9308V16.7542H97.9459V26.6509L78.9319 47.4573H98.5693V57.4319H59.1385Z" fill="white"/>
<path d="M107.499 57.4319V16.6763H122.071V22.287L128.928 16.6763H142.955L149.423 23.2221L157.45 16.6763H171.476L180.126 25.4041V57.4319H165.554V27.4301L162.904 24.9365H158.696L151.605 30.9368V57.4319H137.033V27.4301L134.383 24.9365H130.175L122.071 31.794V57.4319H107.499Z" fill="white"/>
<path d="M195.381 57.4319L186.731 48.782V40.1322L195.381 31.4823H214.785V28.7549L211.979 25.9495H191.562V16.7542H220.629L229.357 25.4041V57.4319H214.785V51.8991L209.408 57.4319H195.381ZM203.953 49.4834H208.161L214.785 42.8596V38.7295H203.953L201.225 41.4569V46.7559L203.953 49.4834Z" fill="white"/>
<path d="M247.111 57.4319L238.929 49.873V25.7937H235.968V16.7542H239.475L243.916 5.14316H253.501V16.7542H259.891V25.7937H253.501V46.0546L255.605 48.1586H261.528V57.4319H247.111Z" fill="white"/>
<path d="M66.8097 151.432L58.1599 142.782V134.132L66.8097 125.482H86.2134V122.755L83.4081 119.95H62.9913V110.754H92.0579L100.786 119.404V151.432H86.2134V145.899L80.8365 151.432H66.8097ZM75.3816 143.483H79.5897L86.2134 136.86V132.729H75.3816L72.6542 135.457V140.756L75.3816 143.483Z" fill="white"/>
<path d="M110.124 166.004V110.754H124.696V115.508L130.307 110.676H144.957L153.607 119.404V142.782L144.957 151.432H130.385L124.696 146.678V166.004H110.124ZM131.398 143.094H137.554L139.424 141.146V121.118L137.554 119.014H131.32L124.696 124.859V137.327L131.398 143.094Z" fill="white"/>
<path d="M162.557 166.004V110.754H177.129V115.508L182.74 110.676H197.39L206.04 119.404V142.782L197.39 151.432H182.818L177.129 146.678V166.004H162.557ZM183.831 143.094H189.987L191.857 141.146V121.118L189.987 119.014H183.753L177.129 124.859V137.327L183.831 143.094Z" fill="white"/>
</g>
<defs>
<filter id="filter0_d_933_3" x="0" y="0" width="265.527" height="174.004" filterUnits="userSpaceOnUse" color-interpolation-filters="sRGB">
<feFlood flood-opacity="0" result="BackgroundImageFix"/>
<feColorMatrix in="SourceAlpha" type="matrix" values="0 0 0 0 0 0 0 0 0 0 0 0 0 0 0 0 0 0 127 0" result="hardAlpha"/>
<feOffset dy="4"/>
<feGaussianBlur stdDeviation="2"/>
<feComposite in2="hardAlpha" operator="out"/>
<feColorMatrix type="matrix" values="0 0 0 0 0 0 0 0 0 0 0 0 0 0 0 0 0 0 0.25 0"/>
<feBlend mode="normal" in2="BackgroundImageFix" result="effect1_dropShadow_933_3"/>
<feBlend mode="normal" in="SourceGraphic" in2="effect1_dropShadow_933_3" result="shape"/>
</filter>
</defs>
</svg>
